<svg width="25" height="25" viewBox="0 0 25 25" fill="none" xmlns="http://www.w3.org/2000/svg">
<path d="M14.8267 14.8432L15.8514 15.868M15.8516 17.1928L19.8293 21.1715C20.1952 21.5375 20.7885 21.5375 21.1545 21.1716C21.5204 20.8057 21.5204 20.2125 21.1546 19.8466L17.1769 15.8678C16.811 15.5018 16.2177 15.5018 15.8517 15.8677C15.4858 16.2336 15.4858 16.8268 15.8516 17.1928Z" stroke="#727272" stroke-width="1.5" stroke-linecap="round" stroke-linejoin="round"/>
<path d="M4.87391 9.08401C5.42445 7.02936 7.02932 5.42449 9.08397 4.87395C11.1386 4.32341 13.3309 4.91083 14.835 6.41494C16.3391 7.91905 16.9266 10.1113 16.376 12.166C15.8255 14.2206 14.2206 15.8255 12.1659 16.3761C10.1113 16.9266 7.91901 16.3392 6.4149 14.8351C4.91079 13.331 4.32337 11.1387 4.87391 9.08401Z" stroke="#727272" stroke-width="1.5" stroke-linecap="round" stroke-linejoin="round"/>
</svg>
